<svg id="icons" enable-background="new 0 0 64 64" height="512" viewBox="0 0 64 64" width="512" xmlns="http://www.w3.org/2000/svg"><g><g><path d="m30.5 47.48v9.01l-15-26.99 15 13.98z" fill="#8cc152"/></g><g><path d="m48.5 22.5-18 39v-5.01-9.01z" fill="#8cc152"/></g><g><path d="m30.498 63.5c-.553 0-1-.447-1-1v-31.008c0-.553.447-1 1-1s1 .447 1 1v31.008c0 .553-.447 1-1 1z" fill="#a0d468"/></g><g><path d="m30.5.5c1.67 0 3.26.98 4.68 2.529-1.51.421-3.12 1.181-4.7 2.151-1.57-.959-3.16-1.709-4.671-2.13v-.01c1.421-1.55 3.011-2.54 4.691-2.54z" fill="#c6589e"/></g><g><path d="m25.81 3.05c1.511.421 3.101 1.171 4.671 2.13-4.141 2.53-8.11 6.471-9.78 9.37-1.771 3.07-1.94 6.63-.771 9.7-2.649-6.18-4.09-18.08.83-20.93 1.39-.8 3.15-.81 5.05-.27z" fill="#d770ad"/></g><g><path d="m30.5 31.5c-1.93.01-3.88-.48-5.67-1.51-2.33-1.35-4-3.4-4.9-5.74-1.17-3.07-1-6.63.771-9.7 1.67-2.899 5.64-6.84 9.78-9.37 1.579-.97 3.189-1.729 4.699-2.15 1.91-.54 3.67-.53 5.06.27 5.399 3.12 3.14 17.15.02 22.55-2.08 3.61-5.86 5.64-9.76 5.65z" fill="#ec87c0"/></g></g></svg>