<?xml version="1.0" standalone="no"?>
<!DOCTYPE svg PUBLIC "-//W3C//DTD SVG 20010904//EN"
 "http://www.w3.org/TR/2001/REC-SVG-20010904/DTD/svg10.dtd">
<svg version="1.0" xmlns="http://www.w3.org/2000/svg"
 width="700.000000pt" height="700.000000pt" viewBox="0 0 700.000000 700.000000"
 preserveAspectRatio="xMidYMid meet">
<metadata>
Created by potrace 1.11, written by Peter Selinger 2001-2013
</metadata>
<g transform="translate(0.000000,700.000000) scale(0.100000,-0.100000)"
fill="#000000" stroke="none">
<path d="M3285 6943 c-61 -10 -156 -40 -195 -61 -99 -54 -259 -189 -253 -212
1 -5 -13 -4 -33 1 -126 35 -301 44 -394 20 -248 -64 -399 -269 -465 -631 -34
-181 -38 -555 -10 -740 2 -14 9 -63 15 -110 6 -47 18 -116 26 -155 8 -38 16
-81 18 -95 15 -118 115 -446 193 -630 116 -274 300 -482 554 -623 129 -72 348
-140 470 -146 13 -1 15 -65 15 -606 0 -655 4 -612 -51 -560 -31 30 -254 238
-295 275 -37 33 -107 99 -225 210 -38 36 -131 121 -205 190 -74 69 -170 159
-214 200 -44 41 -87 82 -96 90 -9 8 -72 67 -140 130 -125 116 -140 131 -244
228 -31 30 -56 49 -56 44 0 -5 7 -15 15 -22 8 -7 15 -16 15 -21 0 -5 31 -64
68 -132 74 -131 86 -153 197 -352 116 -208 121 -217 155 -280 18 -33 40 -73
50 -90 10 -16 30 -52 45 -80 80 -144 230 -416 253 -455 14 -25 39 -70 55 -100
17 -30 41 -73 53 -95 13 -22 34 -61 47 -86 14 -25 35 -63 47 -85 21 -37 139
-248 192 -344 14 -25 38 -67 53 -95 82 -146 181 -324 198 -355 10 -19 33 -60
50 -90 l32 -55 1 -445 c0 -329 4 -451 13 -468 38 -71 143 -74 188 -5 15 22 17
55 19 217 l1 191 85 185 c115 248 139 301 183 395 20 44 61 132 90 195 29 63
66 144 83 180 16 36 71 155 122 265 134 290 144 312 183 395 39 84 145 314
187 405 15 33 40 87 55 120 15 33 40 87 55 120 15 33 43 94 63 135 19 41 45
98 57 125 12 28 45 97 71 154 27 57 49 105 49 107 0 1 24 54 53 116 57 119 86
181 122 263 13 28 46 99 74 158 28 60 51 110 51 112 0 1 22 49 49 106 26 57
62 133 79 169 16 36 50 108 75 161 57 122 68 157 35 109 -13 -19 -327 -456
-698 -970 -739 -1025 -965 -1339 -1019 -1415 -19 -27 -38 -52 -41 -55 -3 -3
-18 -24 -34 -47 -16 -24 -29 -43 -30 -43 0 0 -1 360 -1 800 0 704 2 800 15
801 18 1 48 6 120 20 313 63 594 250 771 513 150 223 249 494 345 951 2 11 11
67 19 125 8 58 17 120 20 137 19 128 25 453 12 598 -12 129 -18 165 -43 264
-112 434 -374 605 -788 516 l-70 -15 -55 55 c-56 54 -144 125 -156 125 -4 0
-19 8 -33 18 -32 22 -123 58 -170 67 -39 8 -120 12 -147 8z"/>
</g>
</svg>
